<svg width="current" height="current" viewBox="0 0 41 41" fill="none" xmlns="http://www.w3.org/2000/svg">
<g clip-path="url(#clip0_33_80)">
<path d="M6.73404 12.0639C6.73404 10.4641 7.36954 8.92989 8.50075 7.79869C9.63195 6.66749 11.1662 6.03198 12.766 6.03198H28.8511C30.4508 6.03198 31.9851 6.66749 33.1163 7.79869C34.2475 8.92989 34.883 10.4641 34.883 12.0639V16.1455C34.2151 16.0681 33.5408 16.0654 32.8723 16.1375V14.0745H8.74468V28.149C8.74468 29.2155 9.16835 30.2383 9.92248 30.9925C10.6766 31.7466 11.6994 32.1703 12.766 32.1703H19.7871C19.3454 32.7665 19.0413 33.4532 18.8964 34.1809H12.766C11.1662 34.1809 9.63195 33.5454 8.50075 32.4142C7.36954 31.283 6.73404 29.7488 6.73404 28.149V12.0639ZM26.9289 19.2761L24.0336 16.3807C23.8451 16.192 23.5893 16.0858 23.3225 16.0856C23.0557 16.0854 22.7998 16.1912 22.611 16.3797C22.4223 16.5682 22.3161 16.824 22.3159 17.0908C22.3157 17.3576 22.4215 17.6135 22.61 17.8023L25.7828 20.973C26.0938 20.3739 26.4758 19.8082 26.9289 19.2761ZM19.007 17.8023C19.1957 17.6135 19.3018 17.3575 19.3018 17.0905C19.3018 16.8235 19.1957 16.5675 19.007 16.3787C18.8182 16.19 18.5622 16.0839 18.2952 16.0839C18.0282 16.0839 17.7722 16.19 17.5834 16.3787L12.5568 21.4053C12.4632 21.4987 12.3889 21.6096 12.3383 21.7318C12.2876 21.8539 12.2615 21.9849 12.2615 22.1171C12.2615 22.2493 12.2876 22.3803 12.3383 22.5024C12.3889 22.6245 12.4632 22.7355 12.5568 22.8289L17.5834 27.8554C17.6769 27.9489 17.7879 28.0231 17.91 28.0737C18.0321 28.1242 18.163 28.1503 18.2952 28.1503C18.4274 28.1503 18.5583 28.1242 18.6804 28.0737C18.8025 28.0231 18.9135 27.9489 19.007 27.8554C19.1004 27.762 19.1746 27.651 19.2252 27.5289C19.2758 27.4068 19.3018 27.2759 19.3018 27.1437C19.3018 27.0115 19.2758 26.8806 19.2252 26.7585C19.1746 26.6364 19.1004 26.5254 19.007 26.4319L14.6901 22.1171L19.007 17.8023ZM34.6658 18.1441C35.4017 18.2285 35.6128 19.1092 35.0881 19.636L33.1277 21.5963C32.8462 21.8778 32.6229 22.212 32.4706 22.5797C32.3183 22.9475 32.2399 23.3416 32.2399 23.7397C32.2399 24.1377 32.3183 24.5319 32.4706 24.8996C32.6229 25.2674 32.8462 25.6015 33.1277 25.883C33.4092 26.1645 33.7433 26.3878 34.1111 26.5401C34.4788 26.6924 34.873 26.7708 35.271 26.7708C35.6691 26.7708 36.0632 26.6924 36.431 26.5401C36.7987 26.3878 37.1329 26.1645 37.4144 25.883L39.3747 23.9226C39.8995 23.3979 40.7822 23.609 40.8666 24.3449C41.0067 25.5398 40.8396 26.7507 40.3812 27.8631C39.9229 28.9754 39.1884 29.9525 38.2472 30.7019C37.306 31.4513 36.1892 31.9482 35.0024 32.1457C33.8156 32.3432 32.5981 32.2347 31.4649 31.8305L25.9839 37.3135C25.4154 37.8819 24.6445 38.2013 23.8405 38.2013C23.0366 38.2013 22.2657 37.8819 21.6972 37.3135C21.1288 36.745 20.8094 35.9741 20.8094 35.1702C20.8094 34.7721 20.8878 34.3779 21.0401 34.0102C21.1925 33.6424 21.4157 33.3083 21.6972 33.0268L27.1782 27.5458C26.7739 26.4125 26.6654 25.1947 26.863 24.0077C27.0606 22.8208 27.5577 21.7038 28.3073 20.7626C29.0569 19.8213 30.0343 19.0868 31.147 18.6286C32.2596 18.1704 33.4707 18.0037 34.6658 18.1441Z" fill="#03FF2E"/>
</g>
<defs>
<clipPath id="clip0_33_80">
<rect width="40.2128" height="40.2128" fill="white" transform="translate(0.702126)"/>
</clipPath>
</defs>
</svg>
